PathFileType	4	(X/Y/Z)	0_1_29_p1_0-261.trc
DataRate	CameraRate	NumFrames	NumMarkers	Units	OrigDataRate	OrigDataStartFrame	OrigNumFrames
60	60	7	27	m	60	195	261
Frame#	Time	RHip			RKnee			RAnkle			RBigToe			RSmallToe			RHeel			LHip			LKnee			LAnkle			LBigToe			LSmallToe			LHeel			Neck			Head			Nose			RShoulder			RElbow			RWrist			RThumb			RIndex			RPinky			LShoulder			LElbow			LWrist			LThumb			LIndex			LPinky		
		X1	Y1	Z1	X2	Y2	Z2	X3	Y3	Z3	X4	Y4	Z4	X5	Y5	Z5	X6	Y6	Z6	X7	Y7	Z7	X8	Y8	Z8	X9	Y9	Z9	X10	Y10	Z10	X11	Y11	Z11	X12	Y12	Z12	X13	Y13	Z13	X14	Y14	Z14	X15	Y15	Z15	X16	Y16	Z16	X17	Y17	Z17	X18	Y18	Z18	X19	Y19	Z19	X20	Y20	Z20	X21	Y21	Z21	X22	Y22	Z22	X23	Y23	Z23	X24	Y24	Z24	X25	Y25	Z25	X26	Y26	Z26	X27	Y27	Z27
196	3.2666666666666666	0.12500542267405637	0.1714653616808497	0.033974255750633675	0.1400790345098716	0.14847535704322692	-0.33028623627362347	0.15711167818868754	0.20415283630489875	-0.7612884977967496	0.18894140861055483	0.05580802159989406	-0.7827951503551935	0.10737744142549613	0.06979251772587455	-0.7875517555432862	0.16621511164855632	0.25843469187507573	-0.8220743460726114	0.3386438752818849	0.1523018032735547	0.052224996425710865	0.33698676429052976	0.13166247487821855	-0.33473983843959765	0.3296618146021792	0.23007500234456368	-0.7691641848781514	0.32235229352704764	0.057396259268009196	-0.786702562749674	0.3631864805515318	0.09604899343797944	-0.7971449186311598	0.3136910776675381	0.26140436487518826	-0.831315867316321	0.22775103369248245	0.20883627501991153	0.5515648646362767	0.2190801650069908	0.14233084860270437	0.8068069129143264	0.22597523462203584	0.06703821362447485	0.6816032045926823	0.07158467886814864	0.19666326213003862	0.5035526487594212	-0.03133719156173096	0.31838540403104887	0.22536420755104247	0.01279630831835228	0.15837647583197217	0.07298094171021631	0.07540927166175009	0.08052627673859465	0.028781560641177206	0.0701364504502399	0.06855646061097023	0.022590956951034944	0.054327818572456936	0.09351185319313586	-0.0002742006459483627	0.36715196840424297	0.21568924006707826	0.4938606428040461	0.4554205627910904	0.1892528264016029	0.2613830092513621	0.3793489964160509	0.04004412457163395	0.21045541623052075	0.2994916537251355	-0.04104400136511572	0.19896979366087225	0.2971479563437482	-0.06705726151001266	0.19479930873207416	0.3282627465292811	-0.04117764661201094	0.16058156260425369
197	3.283333333333333	0.12137385874076441	0.17211851740586565	0.03705900124661039	0.13973399944196302	0.14685410719821154	-0.3339431918143602	0.16293644626302045	0.19930917473622672	-0.748764202460563	0.18567095214769427	0.06832704129009878	-0.7916124275959215	0.10808455926532065	0.06962250167311619	-0.7828866372531215	0.1623355874750643	0.27209590939747896	-0.8259333266872857	0.33868219585270287	0.15050011820680753	0.05289912641663474	0.3368710608638838	0.13175281268567246	-0.33469734466205786	0.32715454110656256	0.24387623691905064	-0.7784064119851668	0.32232482626105485	0.05747365221040129	-0.7868981051719418	0.3693031210816487	0.10914618246747629	-0.8073965604427206	0.31248200645962654	0.26331384808457725	-0.8307906745999968	0.2239122763729082	0.21031200323344984	0.5513529870908905	0.2127315449533661	0.15476304299441557	0.8087954033407433	0.2234870028541502	0.0769638712556969	0.6798965276401366	0.06740929290038356	0.19780604686170897	0.49976403791907775	-0.031155568723570778	0.31824649924482806	0.2295102918324955	0.005537763913250951	0.17032277628873022	0.07229466833213667	0.07574788668643725	0.07993364672699371	0.0324476721312634	0.06580705487289672	0.07045994295078223	0.021674700839880056	0.046154123543475964	0.10655964263150786	-0.009799633473131666	0.3670364888958217	0.21588419092108935	0.493864240125183	0.44784180073580293	0.18751195970682166	0.2571106488228278	0.36406956385186734	0.020637174140470286	0.2218183635625945	0.2895135977599976	-0.059719417020483855	0.2186820305755599	0.2864688216606307	-0.08633235196899215	0.2065738825100832	0.31653476288565596	-0.038812002831242746	0.16705864426436998
198	3.3	0.11643116683222968	0.15893777545952992	0.04785103912614129	0.1362511589694007	0.1484360185636548	-0.32912794398168077	0.16000296967671593	0.21324693996067165	-0.7533936212328686	0.18554914516430185	0.06829354348429563	-0.7917274754741243	0.10095218311407772	0.08482225088420076	-0.7894863175465959	0.1666623813541176	0.25810511956872445	-0.8110111678746951	0.3381978989098704	0.15131428455138202	0.056657262633316885	0.3332372825993891	0.1316122441610525	-0.3342675620114407	0.3293058592673478	0.25990295653787454	-0.7791007405296269	0.31968025778779985	0.06976220275056004	-0.7956025045763082	0.36922201560936685	0.10917916563088804	-0.8073172754416974	0.32032859332129016	0.27698845981186687	-0.8345545741641476	0.22382218383727398	0.21117412608060873	0.5548194171511807	0.20974293741213562	0.16618899664102763	0.8072637834707621	0.2199671728541437	0.0799291555517146	0.6861239610547077	0.06737372800954987	0.1977114466181153	0.49968009607941294	-0.03508765856718726	0.31865722596411533	0.2255141958964139	0.005415466192237587	0.17098404528406003	0.07213320909754582	0.07526368204124667	0.0799401576575817	0.03250860592454293	0.06533472976291242	0.07058987016366855	0.021578966499639436	0.030251255103622376	0.13428921486821888	-0.017230948818895964	0.36297270402817244	0.21771675506233798	0.4934887049497257	0.44369300152675134	0.18963171024645942	0.25640344439157164	0.34546320029993227	-0.0005148993349149997	0.23132321743952156	0.26978969518883006	-0.06831410186000195	0.222689555725834	0.27548292280292963	-0.08488615662576479	0.20981659767385222	0.31039930085856854	-0.04917204865400433	0.17397714732271546
199	3.316666666666667	0.12070762175027958	0.1737653101050557	0.041899573561910146	0.1362244577952945	0.1488357202283675	-0.3289719508545838	0.1575922924441226	0.21861838920229876	-0.7428901659522157	0.1825870489114952	0.07996012397374622	-0.8002437010967919	0.1055386850790565	0.0988968052750234	-0.8001550786218211	0.16735838931697625	0.2603651824745329	-0.8077968749003211	0.33521584559529816	0.16435395933386446	0.0514222358123505	0.3326760694319255	0.12890226043816974	-0.3405459674221762	0.32970972305990914	0.26188485593364236	-0.7753948431742583	0.3157258357928205	0.07206223396468596	-0.7972284054815423	0.3691342382376718	0.10957707381328285	-0.8075734420218343	0.32811048603641324	0.29328383167838606	-0.8413137822553641	0.217257640622793	0.2240023682610461	0.5520412468284521	0.2061889197952781	0.16843982994674664	0.8100383427682044	0.21989378022396888	0.07984352866477386	0.6892249270165846	0.06407672491162397	0.20892411080720236	0.4968805689300483	-0.03951133122419654	0.32027390352692153	0.22487433286561573	0.0006394704980605684	0.1584996008872878	0.07304450470798984	0.07087079315051979	0.06862240475212802	0.033935603445224664	0.06218119568679582	0.08027904775415409	0.0134128887128959	0.027010969221259496	0.14295778743890625	-0.026342251662805353	0.35766663761735196	0.20615358049562071	0.49646598509753437	0.4432540938260856	0.18941089179582615	0.25547944538635475	0.32522115851012645	-0.009189594641249292	0.23498296191216625	0.2501087098951452	-0.07239963777940277	0.23984749439011604	0.2607693714330967	-0.09291448492889084	0.2111026384524073	0.30003828648151515	-0.0700675228827389	0.18279915325946638
200	3.3333333333333335	0.11550818009891935	0.162076885749147	0.04312959471007237	0.13372365850337392	0.15951203233918013	-0.33955143254287207	0.15735873484692586	0.21703892160718716	-0.7463820145590538	0.18512815374077016	0.0695993263597236	-0.7928318121087914	0.10490858108819476	0.09754505548202241	-0.803917425729082	0.17300834244503663	0.2749861776845019	-0.8184105370801409	0.3328733655932122	0.15512166310286873	0.05062827783322453	0.3329180732778907	0.12665406296286272	-0.3470496202818327	0.32975711799206325	0.2620125308432187	-0.7751618804769357	0.31224796307971553	0.08554866153320816	-0.8123261906438364	0.36818276087082613	0.11049091225094708	-0.8039660065099518	0.3289183756466142	0.2947253138249351	-0.8378618837347491	0.21709507849849316	0.22410471394974743	0.5520133764291868	0.2030067670653159	0.17938269935400386	0.8018461686433254	0.21485139910159892	0.09979540681438748	0.6854002035935989	0.05967813495081567	0.21236525006881649	0.4994305410281277	-0.043956771583819124	0.3213848977446702	0.22453863185128453	0.0004544916121850034	0.1584551916887394	0.07266622583054638	0.07082568203033698	0.06852344323139758	0.02651637468839038	0.06224405283668076	0.07884447588714881	0.006056788611337027	0.026743221420977695	0.1419190753922677	-0.030232272288774373	0.35560708610218766	0.21785450625536407	0.49362078616674915	0.4376214145047207	0.17681206789689463	0.2597291553847264	0.3207044550735722	-0.008512660878902062	0.2344066399497568	0.2354399613850889	-0.05858903229092977	0.22409253620480807	0.24529556557730448	-0.09685058587143172	0.21583244456178996	0.28110432135117774	-0.09916262363704847	0.19590683458880156
201	3.35	0.11110785221236792	0.16389565493216174	0.05090650622027507	0.12970450982416903	0.16010509955243457	-0.3408129707604188	0.162865263280653	0.2328592002034249	-0.7530919844907568	0.18213302966514217	0.08124013326043056	-0.8011779896123257	0.10453047935555336	0.09856867161478361	-0.8046945185714423	0.17311205023200274	0.2750301608145046	-0.8185512761676426	0.33138679767519597	0.16518379042114503	0.04711930366491165	0.32919737591570863	0.12422613206552223	-0.3556965376891787	0.3262055505742993	0.2652348246653068	-0.7728865413094531	0.3121887662112493	0.0855259100992261	-0.8125012985409129	0.3681283058785413	0.11042417311246827	-0.8039234285039377	0.3300129229784634	0.2975086415156213	-0.8325753516466022	0.20824812947969354	0.21333353598894583	0.5545221281575938	0.19945906306054512	0.18065422282078716	0.80156858822859	0.2081948112957563	0.11309027084802285	0.6797695764263849	0.05620491424267985	0.22273638915439806	0.4931230724755754	-0.04782123714621994	0.3317747278066666	0.2173226668292936	-0.0035057879041733354	0.15804763074595754	0.06935722418281572	0.06978249331461128	0.06970919597953767	0.01830894518151866	0.05766422280664864	0.06823713309932539	0.005747129003554435	0.022608521071830853	0.14277355030193456	-0.035261392024409845	0.35543775640864533	0.2178812068346341	0.49334985609585985	0.43914412861421326	0.1651660985518438	0.25622059170726563	0.31585212228116594	-0.019623331667071836	0.23497047743315344	0.22666326226443212	-0.038036447763320734	0.20866403665038813	0.24043136041750582	-0.08614509526034553	0.20822759718931866	0.2702391063329818	-0.098040046595366	0.1965030095705966
202	3.3666666666666667	0.11193203057325679	0.1607300723675777	0.03947786502495421	0.13130469288927094	0.15374398851061313	-0.3607110772786528	0.15775065474060632	0.22021967416345312	-0.7400692414766844	0.18297958179153642	0.08035336625863804	-0.8003313261536559	0.10954430344664552	0.09532239262034714	-0.8019323398525536	0.1713152755493349	0.2796396386863209	-0.8194645322845926	0.33223446428702286	0.16334251230419672	0.03971005420994292	0.32957922612376905	0.12028630846507789	-0.36535642803623436	0.32727440420943715	0.2666169396110952	-0.7701532219894659	0.3088696606676732	0.08675018983293761	-0.8137026064630287	0.3593909224138894	0.09774118263114527	-0.7988200853939849	0.33196929377856715	0.2969701733293451	-0.8316806440260323	0.20804008646216846	0.21235445657490937	0.5511357962365956	0.1957671452446796	0.18199246838500027	0.8013222212188148	0.20524408454063206	0.12370353619762649	0.6745443191328339	0.052247389760296165	0.22368261227908842	0.4887073570704594	-0.048693968939887436	0.3310157358280184	0.20931268793873217	0.00487966729360809	0.1703062789441645	0.06340637273617183	0.07438007822508835	0.07908397919414697	0.00939507627377797	0.061751753024188394	0.07992775027349631	-0.0009980327126849126	0.02238497412182191	0.1364267617902487	-0.05236269815564885	0.351540872962322	0.2198241389656567	0.49281417697139657	0.4389177837144197	0.1645966016847307	0.2566636713651214	0.3151713119455096	-0.01868917384284248	0.23026345315199032	0.22119718224367235	-0.021299764527658936	0.19090516289411127	0.225669615920803	-0.07527571132038363	0.1995854518550243	0.26642558276734457	-0.09749276873088743	0.1925418083450705
